<svg width="60" height="52" viewBox="0 0 60 52" fill="none" xmlns="http://www.w3.org/2000/svg">
<path d="M58.2009 30.8935C59.9061 28.8078 60.4027 26.3074 59.6751 23.4596C58.9692 20.6966 56.906 18.4719 54.1564 17.5087C51.3546 16.5269 48.2753 16.9868 45.9201 18.7389C45.5525 19.0123 44.3201 19.8976 43.8778 20.073C43.6488 20.1638 43.4501 20.2976 43.2865 20.4604C34.2382 25.6287 22.6839 25.0554 14.1925 18.7387C13.7745 18.4278 13.333 18.1584 12.874 17.9297C12.8644 17.9244 12.8544 17.9199 12.8446 17.9149C10.711 16.8613 8.19956 16.7018 5.86635 17.519C3.09616 18.4895 1.02276 20.7103 0.320335 23.4595C-0.360642 26.1243 0.220023 28.84 1.77826 30.915C1.09647 31.8159 0.593148 32.8393 0.320335 33.9074C-0.412204 36.7743 0.11303 39.2913 1.88162 41.3886C3.6317 43.4639 6.23889 44.7266 8.21139 45.9193C14.776 49.8881 22.3299 51.9859 30.0563 51.9859C42.9175 51.9859 50.799 46.5857 55.747 43.5942C59.0647 41.5887 60.6433 37.6959 59.6753 33.9074C59.4001 32.8308 58.891 31.7996 58.2009 30.8935ZM53.9193 40.6206L50.0736 42.9458C37.7266 50.4105 22.3862 50.4105 10.0392 42.9458C6.12147 40.5773 2.6076 39.1336 3.72416 34.7632C3.86034 34.2305 4.09623 33.7145 4.41358 33.2434C9.04061 35.9583 10.4408 36.8718 13.4653 38.1602L14.3223 40.2851C14.5968 40.966 15.2561 41.3802 15.9529 41.3802C16.1699 41.3802 16.3905 41.34 16.6044 41.2551C17.2692 40.9914 17.6806 40.3696 17.7059 39.7029C19.6869 40.3057 21.7129 40.7633 23.7685 41.0705L24.8564 43.7678C25.2161 44.6602 26.2375 45.0951 27.1386 44.7378C28.0388 44.3806 28.4767 43.3672 28.1165 42.4744L27.7124 41.4726C28.4914 41.5156 29.2729 41.5382 30.0563 41.5382C31.5127 41.5382 32.963 41.4634 34.4016 41.3158L35.3905 43.7676C35.7506 44.661 36.7726 45.0947 37.6726 44.7378C38.5729 44.3806 39.0108 43.3672 38.6506 42.4744L37.9734 40.7951C40.4726 40.3214 42.9212 39.6232 45.2896 38.7106L45.9246 40.2851C46.1991 40.966 46.8583 41.3802 47.5552 41.3802C47.7723 41.3802 47.9928 41.34 48.2066 41.2551C49.1069 40.898 49.5448 39.8846 49.1846 38.9916L48.5076 37.313C50.8057 36.1989 54.5748 33.9263 55.5753 33.2334C55.896 33.7071 56.134 34.2267 56.2712 34.7631C56.8678 37.0971 55.9446 39.3963 53.9193 40.6206ZM50.0731 32.4973C38.2791 39.6276 23.2488 40.2906 10.0188 32.4855C5.38319 29.7656 5.87901 30.0868 5.27901 29.5856C3.81955 28.2915 3.21264 26.3166 3.72405 24.3152C4.14358 22.6735 5.35049 21.3934 7.03577 20.8031C8.24245 20.3803 9.52178 20.3827 10.6689 20.7787L14.3221 29.837C14.5967 30.5179 15.256 30.9321 15.9528 30.9321C16.1698 30.9321 16.3904 30.8919 16.6042 30.807C17.5045 30.4499 17.9424 29.4365 17.5822 28.5436L15.6783 23.8229C17.7044 24.9247 19.8423 25.7819 22.0598 26.3857L24.8561 33.3195C25.1307 34.0004 25.79 34.4146 26.4868 34.4146C26.7038 34.4146 26.9244 34.3744 27.1382 34.2896C28.0385 33.9324 28.4764 32.919 28.1162 32.026L26.1703 27.2011C27.4487 27.3633 28.7453 27.4467 30.056 27.4467C31.0344 27.4467 32.005 27.3998 32.9663 27.3092L35.3901 33.3193C35.6647 34.0002 36.324 34.4144 37.0208 34.4144C37.2378 34.4144 37.4583 34.3742 37.6721 34.2894C38.5724 33.9322 39.0104 32.9188 38.6501 32.0259L36.5259 26.7587C39.007 26.2215 41.3994 25.3726 43.6617 24.2267L45.9242 29.8367C46.1988 30.5175 46.8581 30.9318 47.5549 30.9318C47.7719 30.9318 47.9924 30.8915 48.2063 30.8067C49.1066 30.4495 49.5445 29.4361 49.1842 28.5432L46.723 22.4404C47.1637 22.147 47.5987 21.8425 48.0263 21.5245C49.4399 20.473 51.2942 20.1993 52.9864 20.792C54.6507 21.375 55.8479 22.6591 56.2709 24.3147C57.3875 28.6844 53.9823 30.134 50.0731 32.4973Z" fill="#5AB963"/>
<path d="M22.2809 10.1698C23.9472 9.06794 24.942 7.22444 24.942 5.23822C24.942 3.25212 23.9472 1.40851 22.2809 0.306781C21.4739 -0.22659 20.384 -0.0105216 19.8462 0.789709C19.3083 1.58994 19.5263 2.67109 20.3331 3.20446C21.0305 3.66554 21.4306 4.40696 21.4306 5.23822C21.4306 6.06948 21.0305 6.8109 20.3331 7.2721C18.6668 8.37382 17.672 10.2173 17.672 12.2035C17.672 14.1896 18.6668 16.0333 20.3331 17.1351C21.1403 17.6687 22.2304 17.452 22.7678 16.6522C23.3057 15.8519 23.0877 14.7708 22.2809 14.2374C21.5835 13.7763 21.1834 13.0349 21.1834 12.2035C21.1834 11.3722 21.5835 10.6309 22.2809 10.1698ZM31.0594 10.1698C32.7257 9.06794 33.7205 7.22444 33.7205 5.23822C33.7205 3.25212 32.7257 1.40851 31.0594 0.306781C30.2524 -0.22659 29.1626 -0.0105216 28.6247 0.789709C28.0868 1.58994 28.3048 2.67109 29.1116 3.20446C29.809 3.66554 30.2091 4.40696 30.2091 5.23822C30.2091 6.06948 29.809 6.8109 29.1116 7.2721C27.4453 8.37382 26.4505 10.2173 26.4505 12.2035C26.4505 14.1896 27.4453 16.0333 29.1116 17.1351C29.9188 17.6687 31.0088 17.452 31.5463 16.6522C32.0843 15.8519 31.8662 14.7708 31.0594 14.2374C30.362 13.7763 29.9619 13.0349 29.9619 12.2035C29.9619 11.3722 30.362 10.6309 31.0594 10.1698ZM39.8378 10.1698C41.5041 9.06794 42.4989 7.22444 42.4989 5.23822C42.4989 3.25212 41.5041 1.40851 39.8378 0.306781C39.0309 -0.22659 37.9409 -0.0105216 37.4031 0.789709C36.8651 1.58994 37.0832 2.67109 37.89 3.20446C38.5874 3.66554 38.9875 4.40696 38.9875 5.23822C38.9875 6.06948 38.5874 6.8109 37.89 7.2721C36.2237 8.37382 35.2289 10.2173 35.2289 12.2035C35.2289 14.1896 36.2237 16.0333 37.89 17.1351C38.6972 17.6687 39.7872 17.452 40.3247 16.6522C40.8626 15.8519 40.6446 14.7708 39.8378 14.2374C39.1404 13.7763 38.7403 13.0349 38.7403 12.2035C38.7404 11.3722 39.1404 10.6309 39.8378 10.1698Z" fill="black"/>
</svg>
